<svg width="65" height="65" viewBox="0 0 65 65" fill="none" xmlns="http://www.w3.org/2000/svg">
<path fill-rule="evenodd" clip-rule="evenodd" d="M27.0359 1.28691e-07C22.7516 0.000557272 18.5288 1.0191 14.7153 2.9717C10.9019 4.9243 7.6071 7.75506 5.10236 11.2307C2.59763 14.7064 0.954687 18.7274 0.308923 22.9626C-0.336842 27.1977 0.0330552 31.5256 1.38813 35.5897C2.74321 39.6539 5.04468 43.3379 8.10289 46.3381C11.1611 49.3384 14.8885 51.569 18.978 52.8463C23.0674 54.1235 27.4019 54.4108 31.6242 53.6844C35.8464 52.958 39.8356 51.2387 43.2631 48.6683C43.467 49.266 43.8046 49.825 44.2828 50.2997L57.7849 63.8011C58.5872 64.5784 59.6631 65.009 60.7803 64.9999C61.8974 64.9907 62.9661 64.5426 63.7556 63.7522C64.5451 62.9618 64.992 61.8926 64.9999 60.7755C65.0077 59.6585 64.5759 58.5831 63.7976 57.7817L50.2954 44.2803C49.838 43.8211 49.2809 43.4734 48.6674 43.2642C51.6814 39.2472 53.517 34.4703 53.9685 29.4687C54.42 24.4672 53.4696 19.4388 51.2237 14.947C48.9779 10.4552 45.5254 6.67764 41.2533 4.03763C36.9811 1.39762 32.058 -0.000489751 27.0359 1.28691e-07ZM6.81788 27.0379C6.81788 24.383 7.34083 21.7541 8.35688 19.3013C9.37293 16.8484 10.8622 14.6197 12.7396 12.7424C14.617 10.8651 16.8458 9.37593 19.2988 8.35993C21.7518 7.34394 24.3808 6.82101 27.0359 6.82101C29.691 6.82101 32.32 7.34394 34.773 8.35993C37.226 9.37593 39.4548 10.8651 41.3322 12.7424C43.2096 14.6197 44.6989 16.8484 45.7149 19.3013C46.731 21.7541 47.2539 24.383 47.2539 27.0379C47.2539 32.3998 45.1238 37.542 41.3322 41.3335C37.5406 45.1249 32.3981 47.2549 27.0359 47.2549C21.6737 47.2549 16.5312 45.1249 12.7396 41.3335C8.94798 37.542 6.81788 32.3998 6.81788 27.0379Z" fill="black"/>
</svg>
