<svg width="62" height="62" viewBox="0 0 62 62" fill="none" xmlns="http://www.w3.org/2000/svg">
<path d="M58 17.5L46 23.5M46 23.5L44.5 24.25L31 31M46 23.5V34M46 23.5L17.5 8.5M31 31L4 17.5M31 31V59.5M41.734 5.146L47.734 8.296C54.187 11.683 57.415 13.375 59.209 16.42C61 19.462 61 23.251 61 30.826V31.177C61 38.749 61 42.538 59.209 45.58C57.415 48.625 54.187 50.32 47.734 53.707L41.734 56.854C36.466 59.617 33.832 61 31 61C28.168 61 25.534 59.62 20.266 56.854L14.266 53.704C7.813 50.317 4.585 48.625 2.791 45.58C1 42.538 1 38.749 1 31.18V30.829C1 23.254 1 19.465 2.791 16.423C4.585 13.378 7.813 11.683 14.266 8.299L20.266 5.149C25.534 2.383 28.168 1 31 1C33.832 1 36.466 2.38 41.734 5.146Z" stroke="black" stroke-width="1.5" stroke-linecap="round"/>
</svg>
